<svg width="30" height="30" viewBox="0 0 30 30" fill="none" xmlns="http://www.w3.org/2000/svg">
<path d="M13.425 3.05497C13.8704 2.69365 14.4265 2.49646 15 2.49646C15.5735 2.49646 16.1296 2.69365 16.575 3.05497L26.11 10.78C26.5436 11.1311 26.8933 11.5745 27.1338 12.0779C27.3743 12.5813 27.4994 13.1321 27.5 13.69V25C27.5 25.663 27.2366 26.2989 26.7678 26.7677C26.2989 27.2366 25.663 27.5 25 27.5H21.25C20.587 27.5 19.9511 27.2366 19.4822 26.7677C19.0134 26.2989 18.75 25.663 18.75 25V18.75C18.75 18.4184 18.6183 18.1005 18.3839 17.8661C18.1495 17.6317 17.8315 17.5 17.5 17.5H12.5C12.1685 17.5 11.8505 17.6317 11.6161 17.8661C11.3817 18.1005 11.25 18.4184 11.25 18.75V25C11.25 25.663 10.9866 26.2989 10.5178 26.7677C10.0489 27.2366 9.41304 27.5 8.75 27.5H5C4.33696 27.5 3.70107 27.2366 3.23223 26.7677C2.76339 26.2989 2.5 25.663 2.5 25L2.5 13.6925C2.49989 13.1337 2.62464 12.582 2.86513 12.0777C3.10562 11.5733 3.45578 11.1291 3.89 10.7775L13.425 3.05497Z" fill="white"/>
</svg>
