<svg width="132" height="20" viewBox="0 0 132 20" fill="none" xmlns="http://www.w3.org/2000/svg">
<path d="M30.006 15L27.85 11.192H26.926V15H24.966V5.228H28.634C29.39 5.228 30.034 5.36333 30.566 5.634C31.098 5.89533 31.4947 6.25467 31.756 6.712C32.0267 7.16 32.162 7.664 32.162 8.224C32.162 8.868 31.9753 9.45133 31.602 9.974C31.2287 10.4873 30.6733 10.842 29.936 11.038L32.274 15H30.006ZM26.926 9.722H28.564C29.096 9.722 29.4927 9.596 29.754 9.344C30.0153 9.08267 30.146 8.72333 30.146 8.266C30.146 7.818 30.0153 7.47267 29.754 7.23C29.4927 6.978 29.096 6.852 28.564 6.852H26.926V9.722ZM41.1448 10.954C41.1448 11.234 41.1261 11.486 41.0888 11.71H35.4188C35.4654 12.27 35.6614 12.7087 36.0068 13.026C36.3521 13.3433 36.7768 13.502 37.2808 13.502C38.0088 13.502 38.5268 13.1893 38.8348 12.564H40.9488C40.7248 13.3107 40.2954 13.9267 39.6608 14.412C39.0261 14.888 38.2468 15.126 37.3228 15.126C36.5761 15.126 35.9041 14.9627 35.3068 14.636C34.7188 14.3 34.2568 13.8287 33.9208 13.222C33.5941 12.6153 33.4307 11.9153 33.4307 11.122C33.4307 10.3193 33.5941 9.61467 33.9208 9.008C34.2474 8.40133 34.7048 7.93467 35.2928 7.608C35.8808 7.28133 36.5574 7.118 37.3228 7.118C38.0601 7.118 38.7181 7.27667 39.2968 7.594C39.8848 7.91133 40.3374 8.364 40.6548 8.952C40.9814 9.53067 41.1448 10.198 41.1448 10.954ZM39.1148 10.394C39.1054 9.89 38.9234 9.48867 38.5688 9.19C38.2141 8.882 37.7801 8.728 37.2668 8.728C36.7814 8.728 36.3708 8.87733 36.0348 9.176C35.7081 9.46533 35.5074 9.87133 35.4328 10.394H39.1148ZM42.0714 11.122C42.0714 10.3193 42.2347 9.61933 42.5614 9.022C42.888 8.41533 43.3407 7.94867 43.9194 7.622C44.498 7.286 45.1607 7.118 45.9074 7.118C46.8687 7.118 47.662 7.36067 48.2874 7.846C48.922 8.322 49.3467 8.994 49.5614 9.862H47.4474C47.3354 9.526 47.144 9.26467 46.8734 9.078C46.612 8.882 46.2854 8.784 45.8934 8.784C45.3334 8.784 44.89 8.98933 44.5634 9.4C44.2367 9.80133 44.0734 10.3753 44.0734 11.122C44.0734 11.8593 44.2367 12.4333 44.5634 12.844C44.89 13.2453 45.3334 13.446 45.8934 13.446C46.6867 13.446 47.2047 13.0913 47.4474 12.382H49.5614C49.3467 13.222 48.922 13.8893 48.2874 14.384C47.6527 14.8787 46.8594 15.126 45.9074 15.126C45.1607 15.126 44.498 14.9627 43.9194 14.636C43.3407 14.3 42.888 13.8333 42.5614 13.236C42.2347 12.6293 42.0714 11.9247 42.0714 11.122ZM58.2073 10.954C58.2073 11.234 58.1886 11.486 58.1513 11.71H52.4813C52.5279 12.27 52.7239 12.7087 53.0693 13.026C53.4146 13.3433 53.8393 13.502 54.3433 13.502C55.0713 13.502 55.5893 13.1893 55.8973 12.564H58.0113C57.7873 13.3107 57.3579 13.9267 56.7233 14.412C56.0886 14.888 55.3093 15.126 54.3853 15.126C53.6386 15.126 52.9666 14.9627 52.3693 14.636C51.7813 14.3 51.3193 13.8287 50.9833 13.222C50.6566 12.6153 50.4932 11.9153 50.4932 11.122C50.4932 10.3193 50.6566 9.61467 50.9833 9.008C51.3099 8.40133 51.7673 7.93467 52.3553 7.608C52.9433 7.28133 53.6199 7.118 54.3853 7.118C55.1226 7.118 55.7806 7.27667 56.3593 7.594C56.9473 7.91133 57.3999 8.364 57.7173 8.952C58.0439 9.53067 58.2073 10.198 58.2073 10.954ZM56.1773 10.394C56.1679 9.89 55.9859 9.48867 55.6313 9.19C55.2766 8.882 54.8426 8.728 54.3293 8.728C53.8439 8.728 53.4333 8.87733 53.0973 9.176C52.7706 9.46533 52.5699 9.87133 52.4953 10.394H56.1773ZM63.9359 7.132C64.8599 7.132 65.6065 7.426 66.1759 8.014C66.7452 8.59267 67.0299 9.40467 67.0299 10.45V15H65.0699V10.716C65.0699 10.1 64.9159 9.62867 64.6079 9.302C64.2999 8.966 63.8799 8.798 63.3479 8.798C62.8065 8.798 62.3772 8.966 62.0599 9.302C61.7519 9.62867 61.5979 10.1 61.5979 10.716V15H59.6379V7.244H61.5979V8.21C61.8592 7.874 62.1905 7.61267 62.5919 7.426C63.0025 7.23 63.4505 7.132 63.9359 7.132ZM71.1757 8.854V12.606C71.1757 12.8673 71.2364 13.0587 71.3577 13.18C71.4884 13.292 71.7031 13.348 72.0017 13.348H72.9117V15H71.6797C70.0277 15 69.2017 14.1973 69.2017 12.592V8.854H68.2777V7.244H69.2017V5.326H71.1757V7.244H72.9117V8.854H71.1757ZM83.6494 13.138H79.7574L79.1134 15H77.0554L80.5694 5.214H82.8514L86.3654 15H84.2934L83.6494 13.138ZM83.1174 11.57L81.7034 7.482L80.2894 11.57H83.1174ZM87.1749 11.122C87.1749 10.3193 87.3382 9.61933 87.6649 9.022C87.9916 8.41533 88.4442 7.94867 89.0229 7.622C89.6016 7.286 90.2642 7.118 91.0109 7.118C91.9722 7.118 92.7656 7.36067 93.3909 7.846C94.0256 8.322 94.4502 8.994 94.6649 9.862H92.5509C92.4389 9.526 92.2476 9.26467 91.9769 9.078C91.7156 8.882 91.3889 8.784 90.9969 8.784C90.4369 8.784 89.9936 8.98933 89.6669 9.4C89.3402 9.80133 89.1769 10.3753 89.1769 11.122C89.1769 11.8593 89.3402 12.4333 89.6669 12.844C89.9936 13.2453 90.4369 13.446 90.9969 13.446C91.7902 13.446 92.3082 13.0913 92.5509 12.382H94.6649C94.4502 13.222 94.0256 13.8893 93.3909 14.384C92.7562 14.8787 91.9629 15.126 91.0109 15.126C90.2642 15.126 89.6016 14.9627 89.0229 14.636C88.4442 14.3 87.9916 13.8333 87.6649 13.236C87.3382 12.6293 87.1749 11.9247 87.1749 11.122ZM98.3828 8.854V12.606C98.3828 12.8673 98.4434 13.0587 98.5648 13.18C98.6954 13.292 98.9101 13.348 99.2088 13.348H100.119V15H98.8868C97.2348 15 96.4088 14.1973 96.4088 12.592V8.854H95.4848V7.244H96.4088V5.326H98.3828V7.244H100.119V8.854H98.3828ZM102.523 6.32C102.177 6.32 101.888 6.21267 101.655 5.998C101.431 5.774 101.319 5.49867 101.319 5.172C101.319 4.84533 101.431 4.57467 101.655 4.36C101.888 4.136 102.177 4.024 102.523 4.024C102.868 4.024 103.153 4.136 103.377 4.36C103.61 4.57467 103.727 4.84533 103.727 5.172C103.727 5.49867 103.61 5.774 103.377 5.998C103.153 6.21267 102.868 6.32 102.523 6.32ZM103.489 7.244V15H101.529V7.244H103.489ZM108.659 13.194L110.619 7.244H112.705L109.835 15H107.455L104.599 7.244H106.699L108.659 13.194ZM114.8 6.32C114.455 6.32 114.165 6.21267 113.932 5.998C113.708 5.774 113.596 5.49867 113.596 5.172C113.596 4.84533 113.708 4.57467 113.932 4.36C114.165 4.136 114.455 4.024 114.8 4.024C115.145 4.024 115.43 4.136 115.654 4.36C115.887 4.57467 116.004 4.84533 116.004 5.172C116.004 5.49867 115.887 5.774 115.654 5.998C115.43 6.21267 115.145 6.32 114.8 6.32ZM115.766 7.244V15H113.806V7.244H115.766ZM119.984 8.854V12.606C119.984 12.8673 120.045 13.0587 120.166 13.18C120.297 13.292 120.512 13.348 120.81 13.348H121.72V15H120.488C118.836 15 118.01 14.1973 118.01 12.592V8.854H117.086V7.244H118.01V5.326H119.984V7.244H121.72V8.854H119.984ZM130.55 7.244L125.748 18.668H123.662L125.342 14.804L122.234 7.244H124.432L126.434 12.662L128.464 7.244H130.55Z" fill="#2F2F2F"/>
<path d="M9.94502 4.25005C6.12752 4.14505 3.00002 7.21255 3.00002 11.0001H1.65752C1.32002 11.0001 1.15502 11.4051 1.39502 11.6376L3.48752 13.7376C3.63752 13.8876 3.87002 13.8876 4.02002 13.7376L6.11252 11.6376C6.16435 11.5847 6.19937 11.5177 6.21316 11.4449C6.22695 11.3722 6.21891 11.297 6.19003 11.2288C6.16116 11.1606 6.11275 11.1025 6.05091 11.0618C5.98907 11.0211 5.91656 10.9996 5.84252 11.0001H4.50002C4.50002 8.07505 6.88502 5.71255 9.82502 5.75005C12.615 5.78755 14.9625 8.13505 15 10.9251C15.0375 13.8576 12.675 16.2501 9.75002 16.2501C8.54252 16.2501 7.42502 15.8376 6.54002 15.1401C6.39637 15.0269 6.21614 14.9705 6.0336 14.9815C5.85106 14.9926 5.67896 15.0704 5.55002 15.2001C5.23502 15.5151 5.25752 16.0476 5.61002 16.3176C6.78837 17.2494 8.24775 17.7544 9.75002 17.7501C13.5375 17.7501 16.605 14.6226 16.5 10.8051C16.4025 7.28755 13.4625 4.34755 9.94502 4.25005ZM9.56252 8.00005C9.25502 8.00005 9.00002 8.25505 9.00002 8.56255V11.3226C9.00002 11.5851 9.14252 11.8326 9.36752 11.9676L11.7075 13.3551C11.9775 13.5126 12.3225 13.4226 12.48 13.1601C12.6375 12.8901 12.5475 12.5451 12.285 12.3876L10.125 11.1051V8.55505C10.125 8.25505 9.87002 8.00005 9.56252 8.00005Z" fill="#2F2F2F"/>
</svg>
