<svg width="39" height="27" viewBox="0 0 39 27" fill="none" xmlns="http://www.w3.org/2000/svg">
<rect x="38.2461" y="26.7775" width="38.2461" height="25.9136" rx="12.9568" transform="rotate(-180 38.2461 26.7775)" fill="#EFC3C3"/>
<path d="M28.6844 14.0428C28.6844 14.3503 28.3472 14.6044 27.9097 14.6446L27.7881 14.6501L9.86021 14.6501C9.36515 14.6501 8.96382 14.3782 8.96382 14.0428C8.96382 13.7353 9.30105 13.4812 9.73857 13.441L9.86021 13.4354L27.7881 13.4354C28.2831 13.4354 28.6844 13.7073 28.6844 14.0428Z" fill="#A4342D"/>
<path d="M17.7234 18.4909C18.0742 18.7276 18.0754 19.1121 17.7261 19.3498C17.4086 19.5659 16.9106 19.5862 16.5592 19.4103L16.4584 19.3517L9.22754 14.4734C8.90766 14.2576 8.87856 13.919 9.14025 13.6809L9.22748 13.6127L16.4584 8.73364C16.8092 8.49695 17.3767 8.49774 17.7261 8.73542C18.0436 8.95149 18.0715 9.28894 17.8104 9.52634L17.7234 9.59434L11.1307 14.0433L17.7234 18.4909Z" fill="#A4342D"/>
</svg>
