<svg width="40" height="40" viewBox="0 0 40 40" fill="none" xmlns="http://www.w3.org/2000/svg">
<path d="M22.343 4.76277C13.8597 4.52944 6.90968 11.3461 6.90968 19.7628H3.92634C3.17634 19.7628 2.80968 20.6628 3.34301 21.1794L7.99301 25.8461C8.32634 26.1794 8.84301 26.1794 9.17634 25.8461L13.8263 21.1794C13.9415 21.0619 14.0193 20.913 14.05 20.7513C14.0806 20.5897 14.0627 20.4226 13.9986 20.2711C13.9344 20.1196 13.8268 19.9905 13.6894 19.9C13.552 19.8096 13.3909 19.7618 13.2263 19.7628H10.243C10.243 13.2628 15.543 8.01277 22.0763 8.09611C28.2763 8.17944 33.493 13.3961 33.5763 19.5961C33.6597 26.1128 28.4097 31.4294 21.9097 31.4294C19.2263 31.4294 16.743 30.5128 14.7763 28.9628C14.4571 28.7113 14.0566 28.5859 13.651 28.6105C13.2453 28.6351 12.8629 28.8079 12.5763 29.0961C11.8763 29.7961 11.9263 30.9794 12.7097 31.5794C15.3282 33.6502 18.5713 34.7724 21.9097 34.7628C30.3263 34.7628 37.143 27.8128 36.9097 19.3294C36.693 11.5128 30.1597 4.97944 22.343 4.76277ZM21.493 13.0961C20.8097 13.0961 20.243 13.6628 20.243 14.3461V20.4794C20.243 21.0628 20.5597 21.6128 21.0597 21.9128L26.2597 24.9961C26.8597 25.3461 27.6263 25.1461 27.9763 24.5628C28.3263 23.9628 28.1263 23.1961 27.543 22.8461L22.743 19.9961V14.3294C22.743 13.6628 22.1763 13.0961 21.493 13.0961Z" fill="white"/>
</svg>
