<svg width="40" height="40" viewBox="0 0 40 40" fill="none" xmlns="http://www.w3.org/2000/svg">
<path d="M6.66663 29.9999C6.66663 28.2318 7.369 26.5361 8.61925 25.2859C9.86949 24.0356 11.5652 23.3333 13.3333 23.3333H26.6666C28.4347 23.3333 30.1304 24.0356 31.3807 25.2859C32.6309 26.5361 33.3333 28.2318 33.3333 29.9999C33.3333 30.884 32.9821 31.7318 32.357 32.3569C31.7319 32.9821 30.884 33.3332 30 33.3332H9.99996C9.1159 33.3332 8.26806 32.9821 7.64294 32.3569C7.01782 31.7318 6.66663 30.884 6.66663 29.9999Z" stroke="white" stroke-width="3" stroke-linejoin="round"/>
<path d="M20 16.6666C22.7614 16.6666 25 14.428 25 11.6666C25 8.9052 22.7614 6.66663 20 6.66663C17.2386 6.66663 15 8.9052 15 11.6666C15 14.428 17.2386 16.6666 20 16.6666Z" stroke="white" stroke-width="3"/>
</svg>
