<svg width="40" height="40" viewBox="0 0 40 40" fill="none" xmlns="http://www.w3.org/2000/svg">
<path d="M31.6667 31.6666L8.33333 31.6666L8.33333 13.3333L31.6667 13.3333M26.6667 1.66663V4.99996L13.3333 4.99996V1.66663L10 1.66663V4.99996H8.33333C6.48333 4.99996 5 6.48329 5 8.33329L5 31.6666C5 32.5507 5.35119 33.3985 5.97631 34.0236C6.60143 34.6488 7.44928 35 8.33333 35H31.6667C32.5507 35 33.3986 34.6488 34.0237 34.0236C34.6488 33.3985 35 32.5507 35 31.6666V8.33329C35 7.44924 34.6488 6.60139 34.0237 5.97627C33.3986 5.35115 32.5507 4.99996 31.6667 4.99996H30V1.66663M28.3333 20H20V28.3333H28.3333L28.3333 20Z" fill="white"/>
</svg>
